<?xml version="1.0" standalone="no"?>
<!DOCTYPE svg PUBLIC "-//W3C//DTD SVG 20010904//EN"
 "http://www.w3.org/TR/2001/REC-SVG-20010904/DTD/svg10.dtd">
<svg version="1.0" xmlns="http://www.w3.org/2000/svg"
 width="500.000000pt" height="500.000000pt" viewBox="0 0 500.000000 500.000000"
 preserveAspectRatio="xMidYMid meet">

<g transform="translate(0.000000,500.000000) scale(0.100000,-0.100000)"
fill="#000000" stroke="none">
<path d="M748 2973 c-20 -24 -41 -64 -35 -69 2 -3 10 2 17 11 7 8 21 15 31 15
20 0 44 -70 157 -450 l49 -165 51 -3 50 -3 -19 63 c-10 35 -53 177 -96 316
-52 174 -83 260 -99 277 -28 30 -83 34 -106 8z"/>
<path d="M1140 2650 l0 -340 200 0 200 0 0 51 c0 28 -3 49 -7 47 -112 -57
-208 -88 -270 -88 l-33 0 0 335 0 335 -45 0 -45 0 0 -340z"/>
<path d="M1620 2650 l0 -340 45 0 45 0 0 340 0 340 -45 0 -45 0 0 -340z"/>
<path d="M1984 2974 c-166 -59 -240 -298 -155 -497 27 -64 93 -132 147 -153
85 -32 247 -5 292 49 10 12 8 22 -9 51 -24 41 -26 42 -50 20 -24 -22 -87 -43
-129 -43 -51 -1 -131 40 -164 84 -51 67 -70 129 -70 235 -1 114 22 177 76 210
64 39 174 16 244 -51 l31 -30 32 37 32 36 -21 23 c-42 44 -171 59 -256 29z"/>
<path d="M2522 2963 c-10 -15 -23 -39 -27 -53 l-7 -25 17 23 c22 30 53 28 65
-4 6 -14 44 -139 86 -277 41 -139 80 -267 85 -284 10 -31 13 -33 60 -33 48 0
50 1 43 23 -4 12 -47 152 -95 312 -49 159 -97 301 -107 315 -14 18 -30 26 -59
28 -35 3 -44 -1 -61 -25z"/>
<path d="M2920 2955 c0 -23 8 -42 24 -59 14 -13 56 -87 95 -164 101 -202 167
-310 227 -369 44 -44 59 -53 88 -53 l36 0 0 340 0 340 -66 0 c-59 0 -65 -2
-59 -17 73 -169 104 -295 112 -460 5 -99 4 -113 -10 -113 -36 0 -128 143 -251
389 -83 165 -112 201 -162 201 -32 0 -34 -2 -34 -35z"/>
<path d="M3460 2939 l0 -51 28 18 c42 29 133 74 148 74 12 0 14 -59 14 -335
l0 -335 50 0 50 0 0 335 c0 278 2 335 14 335 22 0 88 -30 133 -62 l43 -29 0
51 0 50 -240 0 -240 0 0 -51z"/>
<path d="M4093 2966 c-73 -35 -99 -90 -71 -151 17 -39 61 -60 191 -94 143 -37
172 -50 172 -76 0 -29 -34 -30 -110 -5 -71 24 -147 28 -199 10 -39 -13 -76
-52 -76 -81 0 -18 1 -18 20 1 29 29 90 26 198 -10 118 -39 155 -39 193 -1 34
34 36 59 9 93 -23 30 -46 40 -166 72 -112 29 -152 50 -165 83 -37 97 127 125
337 58 18 -6 22 0 31 40 l11 47 -37 16 c-25 11 -75 17 -161 19 -116 4 -129 2
-177 -21z"/>
<path d="M610 2578 c-40 -134 -75 -249 -78 -255 -3 -10 14 -13 64 -13 l69 0 1
188 c1 103 7 216 13 251 6 36 9 66 7 68 -1 2 -36 -106 -76 -239z"/>
<path d="M2401 2607 c-35 -117 -70 -231 -77 -254 l-13 -43 68 0 68 0 1 178 c0
97 6 210 12 251 6 41 9 75 8 77 -2 1 -32 -93 -67 -209z"/>
<path d="M2921 2558 l-1 -248 64 0 64 0 -34 78 c-38 88 -71 221 -83 337 -7 63
-9 26 -10 -167z"/>
<path d="M4000 2497 c0 -58 77 -146 147 -167 54 -17 212 -24 245 -11 25 9 43
38 62 99 7 21 7 21 -26 4 -26 -13 -58 -17 -153 -16 -145 1 -224 25 -256 78
-13 21 -19 26 -19 13z"/>
<path d="M1480 2011 c-25 -48 -3 -83 49 -79 25 2 31 7 31 25 0 17 -6 23 -22
23 -18 0 -20 -2 -8 -10 12 -7 12 -12 3 -21 -15 -15 -43 5 -43 31 0 28 27 45
45 30 17 -14 31 -8 20 9 -11 19 -63 13 -75 -8z"/>
<path d="M1650 1980 l0 -50 35 0 c19 0 35 5 35 10 0 6 -11 10 -25 10 -14 0
-25 5 -25 10 0 6 11 10 25 10 14 0 25 5 25 10 0 6 -12 10 -26 10 -32 0 -27 22
7 31 20 6 18 7 -13 8 l-38 1 0 -50z"/>
<path d="M1813 2023 c13 -3 17 -15 17 -49 0 -24 5 -44 10 -44 6 0 10 18 10 40
0 33 4 42 23 50 17 7 11 9 -28 8 -27 0 -42 -2 -32 -5z"/>
<path d="M2065 2013 c5 -10 13 -33 19 -50 12 -37 26 -43 26 -13 0 12 7 34 15
50 9 17 11 30 6 30 -6 0 -16 -10 -22 -22 l-12 -23 -10 23 c-6 12 -14 22 -20
22 -5 0 -6 -8 -2 -17z"/>
<path d="M2231 2016 c-16 -19 -10 -66 10 -79 44 -28 95 25 69 72 -13 25 -61
29 -79 7z m59 -16 c11 -20 -1 -60 -18 -60 -28 0 -44 63 -19 73 21 9 26 7 37
-13z"/>
<path d="M2402 1983 c3 -48 3 -48 38 -48 35 0 35 0 38 48 2 26 -1 47 -7 47 -5
0 -11 -19 -13 -42 -2 -30 -8 -43 -18 -43 -10 0 -16 13 -18 43 -2 23 -8 42 -13
42 -6 0 -9 -21 -7 -47z"/>
<path d="M2570 1980 c0 -27 5 -50 10 -50 6 0 10 9 10 20 0 11 6 20 14 20 8 0
18 -9 21 -20 3 -11 11 -20 16 -20 11 0 11 11 -1 30 -5 9 -5 19 2 27 18 23 1
43 -37 43 l-35 0 0 -50z m60 19 c0 -5 -9 -9 -20 -9 -19 0 -26 11 -14 23 8 8
34 -3 34 -14z"/>
<path d="M2842 2018 c-16 -16 -15 -63 1 -76 7 -6 27 -10 45 -10 27 1 32 5 32
25 0 17 -6 23 -21 23 -11 0 -17 -4 -14 -10 9 -15 -4 -30 -20 -23 -20 7 -19 62
1 70 8 3 20 1 27 -6 17 -17 31 -13 17 4 -15 18 -51 20 -68 3z"/>
<path d="M3000 1999 c0 -17 5 -39 10 -50 12 -21 50 -25 68 -7 14 14 16 88 2
88 -5 0 -10 -18 -10 -39 0 -22 -5 -43 -10 -46 -19 -12 -40 16 -40 51 0 19 -4
34 -10 34 -5 0 -10 -14 -10 -31z"/>
<path d="M3180 1980 c0 -27 5 -50 10 -50 6 0 10 23 10 50 0 28 -4 50 -10 50
-5 0 -10 -22 -10 -50z"/>
<path d="M3290 1980 c0 -48 1 -50 28 -50 35 0 52 16 52 50 0 34 -17 50 -52 50
-27 0 -28 -2 -28 -50z m58 1 c-2 -15 -10 -27 -20 -29 -14 -3 -18 4 -18 31 0
31 3 34 21 30 15 -4 19 -12 17 -32z"/>
<path d="M3460 1980 l0 -50 35 0 c19 0 35 5 35 10 0 6 -11 10 -25 10 -14 0
-25 5 -25 10 0 6 11 10 25 10 14 0 25 5 25 10 0 6 -12 10 -26 10 -32 0 -27 22
7 31 20 6 18 7 -13 8 l-38 1 0 -50z"/>
</g>
</svg>
